<!-- archivo: icons.svg -->
<svg xmlns="http://www.w3.org/2000/svg" style="display: none;" width="16" height="16">

    <!-- ðŸ” Ãcono: Buscar -->
    <symbol id="icon-search" viewBox="0 0 16 16" fill="none">
        <g clip-path="url(#clip-search)">
            <path
                d="M7.33333 12.6667C10.2789 12.6667 12.6667 10.2789 12.6667 7.33333C12.6667 4.38781 10.2789 2 7.33333 2C4.38781 2 2 4.38781 2 7.33333C2 10.2789 4.38781 12.6667 7.33333 12.6667Z"
                stroke="currentColor" stroke-width="2" stroke-linecap="round" stroke-linejoin="round" />
            <path d="M13.9996 14L11.0996 11.1" stroke="currentColor" stroke-width="2" stroke-linecap="round"
                stroke-linejoin="round" />
        </g>
        <defs>
            <clipPath id="clip-search">
                <rect width="16" height="16" fill="white" />
            </clipPath>
        </defs>
    </symbol>

    <!-- ðŸ‘¤ Ãcono: Usuario -->
    <symbol id="icon-user" viewBox="0 0 16 16" fill="none">
        <g clip-path="url(#clip-user)">
            <path
                d="M13.3337 14V12.6667C13.3337 11.9594 13.0527 11.2811 12.5526 10.781C12.0525 10.281 11.3742 10 10.667 10H5.33366C4.62641 10 3.94814 10.281 3.44804 10.781C2.94794 11.2811 2.66699 11.9594 2.66699 12.6667V14"
                stroke="currentColor" stroke-width="2" stroke-linecap="round" stroke-linejoin="round" />
            <path
                d="M7.99967 7.33333C9.47243 7.33333 10.6663 6.13943 10.6663 4.66667C10.6663 3.19391 9.47243 2 7.99967 2C6.52692 2 5.33301 3.19391 5.33301 4.66667C5.33301 6.13943 6.52692 7.33333 7.99967 7.33333Z"
                stroke="currentColor" stroke-width="2" stroke-linecap="round" stroke-linejoin="round" />
        </g>
        <defs>
            <clipPath id="clip-user">
                <rect width="16" height="16" fill="white" />
            </clipPath>
        </defs>
    </symbol>

    <!-- ðŸ‘¤ Ãcono: carrito -->
    <symbol id="icon-cart"  viewBox="0 0 16 16" fill="none">
        <g clip-path="url(#clip-cart)">
            <path
                d="M5.99967 14.6667C6.36786 14.6667 6.66634 14.3682 6.66634 14C6.66634 13.6318 6.36786 13.3333 5.99967 13.3333C5.63148 13.3333 5.33301 13.6318 5.33301 14C5.33301 14.3682 5.63148 14.6667 5.99967 14.6667Z"
                stroke="currentColor" stroke-width="2" stroke-linecap="round" stroke-linejoin="round" />
            <path
                d="M13.3337 14.6667C13.7018 14.6667 14.0003 14.3682 14.0003 14C14.0003 13.6318 13.7018 13.3333 13.3337 13.3333C12.9655 13.3333 12.667 13.6318 12.667 14C12.667 14.3682 12.9655 14.6667 13.3337 14.6667Z"
                stroke="currentColor" stroke-width="2" stroke-linecap="round" stroke-linejoin="round" />
            <path
                d="M0.666992 0.666656H3.33366L5.12033 9.59332C5.18129 9.90025 5.34826 10.176 5.59202 10.3722C5.83578 10.5684 6.14079 10.6727 6.45366 10.6667H12.9337C13.2465 10.6727 13.5515 10.5684 13.7953 10.3722C14.0391 10.176 14.206 9.90025 14.267 9.59332L15.3337 3.99999H4.00033"
                stroke="currentColor" stroke-width="2" stroke-linecap="round" stroke-linejoin="round" />
        </g>
        <defs>
            <clipPath id="clip-cart">
                <rect width="16" height="16" fill="white" />
            </clipPath>
        </defs>
    </symbol>

</svg>