<!-- archivo: icons.svg -->
<svg xmlns="http://www.w3.org/2000/svg" style="display: none;" width="16" height="16">

    <!-- ðŸ” Ãcono: Buscar -->
    <symbol id="icon-search" viewBox="0 0 16 16" fill="none">
        <g clip-path="url(#clip-search)">
            <path
                d="M7.33333 12.6667C10.2789 12.6667 12.6667 10.2789 12.6667 7.33333C12.6667 4.38781 10.2789 2 7.33333 2C4.38781 2 2 4.38781 2 7.33333C2 10.2789 4.38781 12.6667 7.33333 12.6667Z"
                stroke="currentColor" stroke-width="2" stroke-linecap="round" stroke-linejoin="round" />
            <path d="M13.9996 14L11.0996 11.1" stroke="currentColor" stroke-width="2" stroke-linecap="round"
                stroke-linejoin="round" />
        </g>
        <defs>
            <clipPath id="clip-search">
                <rect width="16" height="16" fill="white" />
            </clipPath>
        </defs>
    </symbol>

    <!-- ðŸ‘¤ Ãcono: Usuario -->
    <symbol id="icon-user" viewBox="0 0 16 16" fill="none">
        <g clip-path="url(#clip-user)">
            <path
                d="M13.3337 14V12.6667C13.3337 11.9594 13.0527 11.2811 12.5526 10.781C12.0525 10.281 11.3742 10 10.667 10H5.33366C4.62641 10 3.94814 10.281 3.44804 10.781C2.94794 11.2811 2.66699 11.9594 2.66699 12.6667V14"
                stroke="currentColor" stroke-width="2" stroke-linecap="round" stroke-linejoin="round" />
            <path
                d="M7.99967 7.33333C9.47243 7.33333 10.6663 6.13943 10.6663 4.66667C10.6663 3.19391 9.47243 2 7.99967 2C6.52692 2 5.33301 3.19391 5.33301 4.66667C5.33301 6.13943 6.52692 7.33333 7.99967 7.33333Z"
                stroke="currentColor" stroke-width="2" stroke-linecap="round" stroke-linejoin="round" />
        </g>
        <defs>
            <clipPath id="clip-user">
                <rect width="16" height="16" fill="white" />
            </clipPath>
        </defs>
    </symbol>

    <!-- ðŸ›’ Ãcono: carrito -->
    <symbol id="icon-cart"  viewBox="0 0 16 16" fill="none">
        <g clip-path="url(#clip-cart)">
            <path
                d="M5.99967 14.6667C6.36786 14.6667 6.66634 14.3682 6.66634 14C6.66634 13.6318 6.36786 13.3333 5.99967 13.3333C5.63148 13.3333 5.33301 13.6318 5.33301 14C5.33301 14.3682 5.63148 14.6667 5.99967 14.6667Z"
                stroke="currentColor" stroke-width="2" stroke-linecap="round" stroke-linejoin="round" />
            <path
                d="M13.3337 14.6667C13.7018 14.6667 14.0003 14.3682 14.0003 14C14.0003 13.6318 13.7018 13.3333 13.3337 13.3333C12.9655 13.3333 12.667 13.6318 12.667 14C12.667 14.3682 12.9655 14.6667 13.3337 14.6667Z"
                stroke="currentColor" stroke-width="2" stroke-linecap="round" stroke-linejoin="round" />
            <path
                d="M0.666992 0.666656H3.33366L5.12033 9.59332C5.18129 9.90025 5.34826 10.176 5.59202 10.3722C5.83578 10.5684 6.14079 10.6727 6.45366 10.6667H12.9337C13.2465 10.6727 13.5515 10.5684 13.7953 10.3722C14.0391 10.176 14.206 9.90025 14.267 9.59332L15.3337 3.99999H4.00033"
                stroke="currentColor" stroke-width="2" stroke-linecap="round" stroke-linejoin="round" />
        </g>
        <defs>
            <clipPath id="clip-cart">
                <rect width="16" height="16" fill="white" />
            </clipPath>
        </defs>
    </symbol>

<symbol id="icon-arrow"  viewBox="0 0 16 16" fill="none">
    <defs>
    <marker id="arrow" markerWidth="5" markerHeight="5"
            viewBox="0 0 10 10" refX="0" refY="5"
            orient="auto-start-reverse">
      <path d="M0 0 L10 5 L0 10 Z" />
    </marker>
  </defs>
  <path d="M5 10 L50 90 L50 50 L90 50 L90 10"
        stroke="black" fill="none"
        marker-end="url(#arrow)" />
    </symbol>


<symbol id="icon-instagram" viewBox="0 0 34 34" fill="none">
    <g clip-path="url(#clip-ig)">
        <path d="M17 22.3125C19.934 22.3125 22.3125 19.934 22.3125 17C22.3125 14.066 19.934 11.6875 17 11.6875C14.066 11.6875 11.6875 14.066 11.6875 17C11.6875 19.934 14.066 22.3125 17 22.3125Z" stroke="white" stroke-linecap="round" stroke-linejoin="round"/>
        <path d="M23.375 4.25H10.625C7.10418 4.25 4.25 7.10418 4.25 10.625V23.375C4.25 26.8958 7.10418 29.75 10.625 29.75H23.375C26.8958 29.75 29.75 26.8958 29.75 23.375V10.625C29.75 7.10418 26.8958 4.25 23.375 4.25Z" stroke="white" stroke-linecap="round" stroke-linejoin="round"/>
        <path d="M23.9062 11.4219C24.6398 11.4219 25.2344 10.8273 25.2344 10.0938C25.2344 9.36025 24.6398 8.76562 23.9062 8.76562C23.1727 8.76562 22.5781 9.36025 22.5781 10.0938C22.5781 10.8273 23.1727 11.4219 23.9062 11.4219Z" fill="white"/>
    </g>
    <defs>
        <clipPath id="clip-ig">
            <rect width="34" height="34" fill="white"/>
        </clipPath>
    </defs>
</symbol>


</svg>